<svg viewBox="0 0 34 34" xmlns="http://www.w3.org/2000/svg" fill-rule="evenodd"
     clip-rule="evenodd" stroke-linejoin="round" stroke-miterlimit="1.414">
  <path fill="none" d="M0 0h33.18v33.18H0z"></path>
  <clipPath>
    <path d="M0 0h33.18v33.18H0z"></path>
  </clipPath>
  <g clip-path="url(#a)">
    <path
      d="M21.995 0c3.966.007 4.12.04 4.895.152 1.599.231 2.942.869 4.039 1.917a6.571 6.571 0 0 1 1.42 1.946c.465.946.694 1.842.798 3.174.023.286.033 4.834.033 9.386 0 4.55-.009 9.107-.032 9.393-.103 1.311-.332 2.214-.782 3.143a6.947 6.947 0 0 1-4.53 3.708c-.72.186-1.372.274-2.495.326-.401.021-4.591.026-8.781.026s-8.378-.013-8.789-.031c-.969-.046-1.725-.143-2.408-.319a6.987 6.987 0 0 1-4.53-3.7c-.459-.952-.676-1.822-.791-3.205-.033-.393-.041-2.416-.041-9.337 0-2.332-.002-4.07 0-5.391.007-3.962.039-4.12.152-4.896.231-1.598.869-2.942 1.921-4.035A6.64 6.64 0 0 1 3.98.861C4.944.382 5.828.158 7.25.04 7.644.007 9.669 0 16.595 0h5.4zm-5.409 4.338h.002-.004.002c-3.325 0-3.743.015-5.049.074-1.304.06-2.194.266-2.973.569a6.01 6.01 0 0 0-2.17 1.413 6.01 6.01 0 0 0-1.413 2.169c-.304.779-.511 1.67-.569 2.973-.059 1.307-.074 1.724-.074 5.051 0 3.326.015 3.743.074 5.049.06 1.304.266 2.194.569 2.973a6.001 6.001 0 0 0 1.413 2.17 6 6 0 0 0 2.169 1.414c.779.302 1.669.509 2.973.569 1.307.059 1.724.074 5.05.074 3.327 0 3.743-.015 5.05-.074 1.304-.06 2.195-.267 2.974-.569a5.989 5.989 0 0 0 2.168-1.414 6.004 6.004 0 0 0 1.414-2.17c.301-.779.508-1.669.569-2.973.059-1.306.074-1.723.074-5.049 0-3.327-.015-3.744-.074-5.051-.061-1.304-.268-2.194-.569-2.973a6 6 0 0 0-1.414-2.169 5.976 5.976 0 0 0-2.169-1.413c-.78-.303-1.671-.509-2.975-.569-1.306-.059-1.722-.074-5.048-.074zm-1.097 2.207h1.099c3.27 0 3.658.012 4.949.071 1.195.054 1.843.254 2.274.422.572.222.98.487 1.408.916.429.428.694.837.917 1.408.167.432.367 1.08.421 2.274.059 1.291.072 1.679.072 4.948s-.013 3.657-.072 4.948c-.054 1.194-.254 1.842-.421 2.274a3.793 3.793 0 0 1-.917 1.407 3.787 3.787 0 0 1-1.408.916c-.431.168-1.079.367-2.274.422-1.291.059-1.679.071-4.949.071-3.271 0-3.659-.012-4.95-.071-1.194-.055-1.842-.255-2.274-.422a3.803 3.803 0 0 1-1.409-.916 3.787 3.787 0 0 1-.916-1.408c-.168-.432-.368-1.08-.422-2.274-.059-1.291-.071-1.679-.071-4.95s.012-3.657.071-4.948c.054-1.194.254-1.842.422-2.274a3.79 3.79 0 0 1 .916-1.409 3.803 3.803 0 0 1 1.409-.916c.432-.169 1.08-.368 2.274-.423 1.13-.051 1.568-.066 3.851-.069v.003zm1.099 3.752h-.001.001a6.29 6.29 0 1 0 0 12.58 6.29 6.29 0 0 0 0-12.58zm0 2.207a4.083 4.083 0 1 1 0 8.166 4.083 4.083 0 0 1 0-8.166zm6.538-3.925a1.47 1.47 0 1 0 0 2.94 1.47 1.47 0 0 0 0-2.94z"
      fill="#FFF" fill-rule="nonzero"></path>
  </g>
</svg>
